<svg width="11" height="19" viewBox="0 0 11 19" fill="none" xmlns="http://www.w3.org/2000/svg">
<path d="M0.015625 9.35889C0.0208333 9.1766 0.0572917 9.00993 0.125 8.85889C0.192708 8.70785 0.296875 8.56201 0.4375 8.42139L8.26562 0.843262C8.48958 0.619303 8.76562 0.507324 9.09375 0.507324C9.3125 0.507324 9.51042 0.559408 9.6875 0.663574C9.86979 0.767741 10.013 0.908366 10.1172 1.08545C10.2266 1.26253 10.2812 1.46045 10.2812 1.6792C10.2812 2.00212 10.1589 2.28597 9.91406 2.53076L2.83594 9.35107L9.91406 16.1792C10.1589 16.4292 10.2812 16.7131 10.2812 17.0308C10.2812 17.2547 10.2266 17.4552 10.1172 17.6323C10.013 17.8094 9.86979 17.95 9.6875 18.0542C9.51042 18.1636 9.3125 18.2183 9.09375 18.2183C8.76562 18.2183 8.48958 18.1037 8.26562 17.8745L0.4375 10.2964C0.291667 10.1558 0.184896 10.0099 0.117188 9.85889C0.0494792 9.70264 0.015625 9.53597 0.015625 9.35889Z" fill="#052D50"/>
</svg>
