<svg width="21" height="20" viewBox="0 0 21 20" fill="none" xmlns="http://www.w3.org/2000/svg">
<g clip-path="url(#clip0_10374_429)">
<path d="M18.0734 9.7201L10.3739 17.4843C10.0752 17.7886 9.71876 18.0305 9.3255 18.1955C8.93224 18.3606 8.51001 18.4456 8.08351 18.4456C7.657 18.4456 7.23478 18.3606 6.8415 18.1955C6.44824 18.0305 6.09181 17.7886 5.79309 17.4843L3.48971 15.142C2.88673 14.5296 2.54877 13.7046 2.54877 12.8452C2.54877 11.9857 2.88673 11.1607 3.48971 10.5483L11.6938 2.31828C11.9344 2.0757 12.2207 1.88317 12.536 1.75177C12.8514 1.62038 13.1897 1.55273 13.5314 1.55273C13.873 1.55273 14.2113 1.62038 14.5267 1.75177C14.842 1.88317 15.1283 2.0757 15.3688 2.31828L16.2876 3.23704C16.5303 3.47762 16.7228 3.76387 16.8541 4.07924C16.9856 4.39462 17.0531 4.73289 17.0531 5.07455C17.0531 5.4162 16.9856 5.75448 16.8541 6.06985C16.7228 6.38524 16.5303 6.67147 16.2876 6.91206L9.01521 14.2103C8.8949 14.3317 8.75179 14.428 8.59409 14.4936C8.43641 14.5593 8.26727 14.5931 8.09645 14.5931C7.92562 14.5931 7.75648 14.5593 7.59879 14.4936C7.44111 14.428 7.29798 14.3317 7.17769 14.2103L6.72477 13.7445C6.60349 13.6242 6.50722 13.4811 6.44152 13.3234C6.37584 13.1657 6.34201 12.9966 6.34201 12.8258C6.34201 12.6549 6.37584 12.4858 6.44152 12.3281C6.50722 12.1704 6.60349 12.0273 6.72477 11.907L11.6033 7.06734" stroke="#052D50" stroke-width="2" stroke-linecap="round" stroke-linejoin="round"/>
</g>
<defs>
<clipPath id="clip0_10374_429">
<rect width="20" height="20" fill="white" transform="translate(0.4021 -0.000488281)"/>
</clipPath>
</defs>
</svg>
