<svg width="21" height="20" viewBox="0 0 21 20" fill="none" xmlns="http://www.w3.org/2000/svg">
<g clip-path="url(#clip0_10374_492)">
<path d="M7.83068 9.35655C9.60588 9.35655 11.045 7.91746 11.045 6.14226C11.045 4.36707 9.60588 2.92798 7.83068 2.92798C6.05548 2.92798 4.61639 4.36707 4.61639 6.14226C4.61639 7.91746 6.05548 9.35655 7.83068 9.35655Z" stroke="#052D50" stroke-width="2" stroke-linecap="round" stroke-linejoin="round"/>
<path d="M2.04498 18.3566H13.6164V17.6596C13.6062 16.6797 13.3477 15.7182 12.8652 14.8653C12.3827 14.0122 11.6918 13.2954 10.8572 12.7818C10.0225 12.2681 9.0713 11.9744 8.09237 11.9281C8.00509 11.924 7.91784 11.9218 7.8307 11.9216C7.74355 11.9218 7.6563 11.924 7.56903 11.9281C6.5901 11.9744 5.63888 12.2681 4.80422 12.7818C3.96957 13.2954 3.27872 14.0122 2.79619 14.8653C2.31367 15.7182 2.05522 16.6797 2.04498 17.6596V18.3566Z" stroke="#052D50" stroke-width="2" stroke-linecap="round" stroke-linejoin="round"/>
<path d="M12.9736 9.35655C14.7488 9.35655 16.1879 7.91746 16.1879 6.14226C16.1879 4.36707 14.7488 2.92798 12.9736 2.92798" stroke="#052D50" stroke-width="2" stroke-linecap="round" stroke-linejoin="round"/>
<path d="M16.1878 18.3568H18.7593V17.6596C18.749 16.6797 18.4906 15.7182 18.008 14.8653C17.5255 14.0122 16.8347 13.2954 16 12.7818C15.4605 12.4498 14.8722 12.2097 14.2593 12.0688" stroke="#052D50" stroke-width="2" stroke-linecap="round" stroke-linejoin="round"/>
</g>
<defs>
<clipPath id="clip0_10374_492">
<rect width="20" height="20" fill="white" transform="translate(0.4021 -0.000488281)"/>
</clipPath>
</defs>
</svg>
